<svg width="142" height="32" viewBox="0 0 142 32" fill="none" xmlns="http://www.w3.org/2000/svg">
<path d="M26.5965 19.0447V19.0517V19.0438C25.7591 19.091 24.8858 19.1315 23.9766 19.1653C23.6433 19.1719 23.3147 19.251 23.0104 19.3978C22.6913 19.5481 22.5099 19.7264 22.2863 19.9624C21.1896 21.1278 19.7122 21.7811 18.173 21.7811C16.6338 21.7811 15.1563 21.1278 14.0596 19.9624C13.8513 19.7268 13.6041 19.5353 13.3307 19.3978C13.0248 19.256 12.6971 19.1772 12.3645 19.1653C11.4574 19.1321 10.5827 19.091 9.74533 19.0438V19.0517V19.0447L9.10391 19.0054V19.1802C9.56346 19.383 9.95771 19.7271 10.2377 20.1695H10.2426C11.0272 21.6952 12.175 22.9673 13.5674 23.8545C14.9598 24.7416 16.5463 25.2116 18.1632 25.2161H18.1794C19.7963 25.2118 21.3827 24.7417 22.775 23.8546C24.1673 22.9674 25.3149 21.6953 26.0993 20.1695H26.1041C26.3843 19.7272 26.7785 19.3832 27.238 19.1802V19.0054L26.5965 19.0447Z" fill="white"/>
<path d="M28.9071 14.7332C27.2874 14.3722 26.9456 12.7579 26.9456 12.7579C26.3987 10.7152 25.2515 8.91963 23.6769 7.64165C22.1022 6.36368 20.1854 5.67251 18.2151 5.67232H18.173C16.2027 5.67251 14.2858 6.36368 12.7112 7.64165C11.1365 8.91963 9.98932 10.7152 9.44241 12.7579C9.44241 12.7579 9.09822 14.3722 7.48169 14.7332C2.94634 15.0898 0 15.6675 0 16.3195C0 17.0589 3.79593 17.7031 9.39951 18.037C9.39951 18.0536 12.8358 18.2117 12.8285 18.1943C14.5188 18.2502 16.311 18.2817 18.1738 18.2817H18.2159C20.0786 18.2817 21.8709 18.2519 23.5611 18.1943C23.5538 18.21 26.9861 18.0536 26.9901 18.037C32.5945 17.7031 36.3896 17.0589 36.3896 16.3195C36.388 15.6675 33.4409 15.0898 28.9071 14.7332ZM23.7466 15.1501C23.6327 15.3319 23.4853 15.4864 23.3137 15.604C23.142 15.7216 22.9497 15.7998 22.7488 15.8336C19.7337 16.3801 16.6552 16.3801 13.64 15.8336C13.439 15.7998 13.2466 15.7216 13.0748 15.604C12.903 15.4864 12.7555 15.3319 12.6414 15.1501C12.2924 14.6021 12.4406 13.9396 12.4592 13.8627C12.7904 12.4996 13.5308 11.2934 14.5645 10.4325C15.5983 9.57164 16.8672 9.10465 18.173 9.10455H18.2159C19.5214 9.10554 20.7899 9.57289 21.8235 10.4336C22.8571 11.2943 23.5977 12.5001 23.9296 13.8627C23.9458 13.9396 24.0964 14.6021 23.7466 15.1527V15.1501Z" fill="white"/>
<path d="M18.6241 1.14848C18.5104 1.04913 18.3699 0.992479 18.2238 0.987116C18.0776 0.981753 17.9338 1.02798 17.8142 1.11877L0.621174 14.6414L17.8401 0.220266C17.9532 0.131687 18.0891 0.0835758 18.2289 0.0826353C18.3686 0.0816948 18.5051 0.127967 18.6192 0.215017C18.6192 0.215017 36.1329 14.5698 36.1807 14.6108C36.2186 14.6469 36.2437 14.6962 36.2517 14.7501C36.2597 14.804 36.25 14.8592 36.2244 14.9063C36.2022 14.9431 36.1703 14.9718 36.1327 14.9888C36.0952 15.0058 36.0538 15.0102 36.0139 15.0015C35.4218 14.8045 34.8196 14.6448 34.2103 14.5234C34.0259 14.5005 33.8531 14.4148 33.717 14.2787C33.5348 14.1249 18.6241 1.14848 18.6241 1.14848Z" fill="white"/>
<path d="M36.0552 15.005C36.1683 15.005 36.2601 14.906 36.2601 14.7839C36.2601 14.6618 36.1683 14.5628 36.0552 14.5628C35.942 14.5628 35.8503 14.6618 35.8503 14.7839C35.8503 14.906 35.942 15.005 36.0552 15.005Z" fill="white"/>
<path d="M18.6694 31.0212C18.5497 31.1119 18.4059 31.158 18.2598 31.1525C18.1136 31.147 17.9731 31.0901 17.8596 30.9906L3.1448 18.7545C3.0086 18.6185 2.83585 18.5329 2.65155 18.5098C2.37619 18.453 1.1873 18.1445 0.890885 18.0658C0.871054 18.0567 0.849998 18.0511 0.828522 18.0492H0.812309C0.773024 18.0493 0.734666 18.0619 0.702057 18.0856C0.669449 18.1092 0.644055 18.1428 0.629136 18.182C0.614218 18.2212 0.610451 18.2643 0.618261 18.3059C0.626071 18.3474 0.645131 18.3856 0.673031 18.4154L0.679517 18.4207C0.690908 18.4317 0.7034 18.4414 0.716768 18.4495L17.8644 31.8682C17.9787 31.9548 18.1151 32.0009 18.2547 32C18.3944 31.999 18.5303 31.9511 18.6435 31.8629L35.4891 18.3892L18.6694 31.0212Z" fill="white"/>
<path d="M53.3024 9.85011C53.3024 12.1278 51.7013 13.4379 48.5889 13.4379H42.7148V0.152952H48.2374C51.072 0.152952 52.6513 1.44302 52.6513 3.58784C52.6513 5.03083 51.9653 6.03505 50.9983 6.54897C52.3873 6.96587 53.3024 8.08548 53.3024 9.85011ZM44.4747 1.68947V5.94066H48.0803C49.8742 5.94066 50.8947 5.21958 50.8947 3.81504C50.8947 2.41051 49.8726 1.69297 48.0803 1.69297L44.4747 1.68947ZM51.5272 9.69891C51.5272 8.16152 50.4743 7.47803 48.5201 7.47803H44.4747V11.9005H48.5201C50.4703 11.9005 51.5256 11.2363 51.5256 9.69891H51.5272Z" fill="white"/>
<path d="M70.3335 12.7929L68.1006 9.36155C67.8577 9.38078 67.5904 9.39911 67.3272 9.39911H64.2845V13.4423H62.5254V0.157347H67.3272C70.5278 0.157347 72.4618 1.90537 72.4618 4.7896C72.4618 6.84003 71.477 8.31973 69.7536 8.98485L72.6732 13.4423H71.4916C71.2645 13.4421 71.0407 13.383 70.8391 13.27C70.6376 13.157 70.4642 12.9934 70.3335 12.7929ZM70.7036 4.78695C70.7036 2.88948 69.5252 1.80747 67.2738 1.80747H64.2845V7.78569H67.2745C69.5252 7.78132 70.7036 6.68095 70.7036 4.7826V4.78695Z" fill="white"/>
<path d="M90.4445 10.1158H83.9014L82.5473 13.437H80.7364L85.7204 1.55926C85.8966 1.13919 86.1813 0.78287 86.5405 0.533113C86.8996 0.283356 87.3179 0.150738 87.7451 0.151203H88.0537L93.6468 13.4362H92.6546C92.4005 13.4362 92.1518 13.3564 91.9389 13.2065C91.7261 13.0566 91.5583 12.843 91.456 12.5919L90.4445 10.1158ZM89.8282 8.59765L87.1726 2.08802L84.5169 8.59765H89.8282Z" fill="white"/>
<path d="M122.405 0.152099H123.164V12.0316C123.164 12.2163 123.13 12.3991 123.065 12.5697C122.999 12.7404 122.904 12.8954 122.783 13.0259C122.662 13.1565 122.518 13.2601 122.36 13.3308C122.202 13.4015 122.033 13.4379 121.861 13.4379H121.405V1.23061C121.405 1.08895 121.431 0.948668 121.481 0.817763C121.532 0.686858 121.605 0.567906 121.698 0.467732C121.791 0.367559 121.901 0.288112 122.022 0.233952C122.144 0.179791 122.274 0.151984 122.405 0.152099Z" fill="white"/>
<path d="M133.576 0.152098C134.042 0.152098 134.489 0.351965 134.819 0.707786C135.149 1.06361 135.334 1.54625 135.335 2.04957V11.786H142C142 12.224 141.839 12.644 141.552 12.9538C141.265 13.2635 140.876 13.4377 140.47 13.4379H133.576V0.152098Z" fill="white"/>
<path d="M102.042 11.9189C102.116 11.7482 102.221 11.595 102.351 11.4683C102.48 11.3417 102.631 11.244 102.796 11.1809C102.961 11.1178 103.135 11.0906 103.31 11.1009C103.484 11.1111 103.655 11.1587 103.812 11.2407C104.73 11.7212 105.736 11.9727 106.756 11.9766C108.883 11.9766 109.797 11.0842 109.797 9.92616C109.797 6.68096 102.341 8.7305 102.341 3.79584C102.341 1.74629 103.818 0 107.054 0C108.496 0 109.991 0.417773 111.011 1.17641L110.431 2.69548C109.422 1.99876 108.252 1.62365 107.054 1.61342C104.962 1.61342 104.064 2.5626 104.064 3.71979C104.064 6.96586 111.521 4.93466 111.521 9.81251C111.521 11.8437 110.009 13.5891 106.756 13.5891C104.873 13.5891 103.027 12.9065 102.042 11.9189Z" fill="white"/>
<path d="M54.2654 23.3169C54.2654 26.3916 52.0844 28.3276 48.6545 28.3276H46.8785V30.4593C46.8785 30.7606 46.7675 31.0496 46.5701 31.2627C46.3726 31.4758 46.1048 31.5955 45.8256 31.5955H42.7246V18.3105H48.6513C52.0844 18.3061 54.2654 20.2421 54.2654 23.3169ZM50.0791 23.3169C50.0791 22.3493 49.534 21.7611 48.3913 21.7611H46.8785V24.8735H48.3913C49.5381 24.8735 50.0791 24.2853 50.0791 23.3169Z" fill="white"/>
<path d="M128.097 24.9495C128.097 20.929 131.034 18.0029 135.044 18.0029C139.054 18.0029 141.991 20.9255 141.991 24.9495C141.991 28.9734 139.054 31.8961 135.044 31.8961C131.034 31.8961 128.097 28.9734 128.097 24.9495ZM137.805 24.9495C137.805 22.8807 136.574 21.6282 135.044 21.6282C133.514 21.6282 132.283 22.8807 132.283 24.9495C132.283 27.0183 133.514 28.2707 135.044 28.2707C136.574 28.2707 137.801 27.0183 137.801 24.9495H137.805Z" fill="white"/>
<path d="M73.4758 28.2742H72.342V31.6374H68.1654V18.2651H74.1318C77.5852 18.2651 79.7807 20.2141 79.7807 23.3099C79.7807 25.2397 78.9304 26.6914 77.4434 27.513L80.0464 31.6409H77.0903C76.6266 31.6409 76.17 31.5181 75.7605 31.2832C75.351 31.0484 75.0012 30.7088 74.7417 30.2941L73.4758 28.2742ZM73.8654 21.7392H72.342V24.8726H73.8654C75.0162 24.8726 75.5661 24.2809 75.5661 23.3064C75.5661 22.3318 75.0162 21.7392 73.8654 21.7392Z" fill="white"/>
<path d="M62.1925 29.2767H57.5138L56.6869 31.592H52.4667L57.415 19.3751C57.5438 19.0574 57.7555 18.7872 58.0244 18.5973C58.2932 18.4075 58.6074 18.3063 58.9287 18.3062H61.9253L67.3069 31.5911H63.0145L62.1925 29.2767ZM61.049 26.0499L59.8528 22.7094L58.6574 26.0499H61.049Z" fill="white"/>
<path d="M90.6227 29.2767H85.9448L85.1179 31.592H80.8976L85.846 19.3751C85.9746 19.0574 86.1864 18.787 86.4552 18.5972C86.724 18.4073 87.0384 18.3062 87.3596 18.3062H90.3562L95.7371 31.5911H91.4447L90.6227 29.2767ZM89.4799 26.0499L88.2837 22.7094L87.0875 26.0499H89.4799Z" fill="white"/>
<path d="M117.364 28.137V31.516H107.129V18.231H117.136V20.0944C117.136 20.2934 117.099 20.4904 117.029 20.6742C116.958 20.858 116.855 21.0251 116.724 21.1657C116.594 21.3064 116.439 21.4179 116.269 21.494C116.098 21.5701 115.916 21.6092 115.731 21.609H111.209V23.1657H116.415V26.3925H111.209V28.1405L117.364 28.137Z" fill="white"/>
<path d="M96.5591 18.3062H100.71V28.1187H105.036C105.363 28.1187 105.676 28.2586 105.907 28.5077C106.137 28.7569 106.267 29.0948 106.267 29.4471V31.592H96.5591V18.3062Z" fill="white"/>
<path d="M118.323 18.3062H122.474V28.1187H126.801C127.127 28.1187 127.441 28.2586 127.671 28.5077C127.902 28.7569 128.032 29.0948 128.032 29.4471V31.592H118.323V18.3062Z" fill="white"/>
</svg>
